# xmcd
#
# Track frame offsets:
#	150
#	14791
#	29382
#	44627
#	59905
#	74639
#	87314
#	101407
#	114838
#	126399
#
# Disc length: 1866 seconds
#
# Revision: 0
# Processed by: cddbd v1.5.2PL0 Copyright (c) Steve Scherf et al.
# Submitted via: EasyCDDAExtractor 16.0.6.1
#
DISCID=9707480a
DTITLE=Συλλογικός δίσκος - Λαϊκό τραγούδι 1954-1967, 1967-3
DYEAR=2008
DGENRE=Λαϊκή
TTITLE0=Κόκοτας Σταμάτης - Βρέχει ο Θεός [Δήμος Μούτσης-Νίκος Γκάτσος]
TTITLE1=Μοσχολιού Βίκυ-Καλδάρας Απόστολος - Ένα πουλί πληγώθηκε [Απόστολος Καλ
TTITLE1=δάρας-Ευτ. Παπαγιαννοπούλου]
TTITLE2=Κόκοτας Σταμάτης - Πήρες το μεγάλο δρόμο [Δήμος Μούτσης-Νίκος Γκάτσος]
TTITLE3=Κόκοτας Σταμάτης - Στου προφήτη Ηλία [Δήμος Μούτσης-Νίκος Γκάτσος]
TTITLE4=Ευσταθίου Δημήτρης-Διαμάντη Λ.-Παπαδάκης Μ. - Στου Χαροκόπου και στην 
TTITLE4=Καλλιθέα [Βασίλης Βασιλειάδης-Πυθαγόρας]
TTITLE5=Μπιθικώτσης Γρηγόρης - Μοίρα μου γιατί μ' αφήνεις [Άκης Πάνου]
TTITLE6=Μοσχολιού Βίκυ-Καλδάρας Απόστολος - Λες κι οργώνω μέσ' στα βράχια [Από
TTITLE6=στολος Καλδάρας-Δημήτρης Ρήτας]
TTITLE7=Λύδια Γιώτα - Η πιο μεγάλη ώρα [Άκης Πάνου]
TTITLE8=Μπιθικώτσης Γρηγόρης-Λαμπράκη Χαρούλα - Θα κλείσω τα μάτια [Άκης Πάνου
TTITLE8=]
TTITLE9=Μπιθικώτσης Γρηγόρης - Ρολόϊ, κομπολόϊ [Άκης Πάνου]
EXTD=
EXTT0=
EXTT1=
EXTT2=
EXTT3=
EXTT4=
EXTT5=
EXTT6=
EXTT7=
EXTT8=
EXTT9=
PLAYORDER=
